# xmcd
#
# Track frame offsets: 
#        150
#        5012
#        22875
#        42638
#        60543
#        81517
#        97781
#        115717
#        138406
#        155294
#        173434
#        193943
#        211111
#        229116
#        245012
#        263878
#
# Disc length: 3760 seconds
#
# Revision: 2
# Processed by: cddbd v1.5.2PL0 Copyright (c) Steve Scherf et al.
# Submitted via: ExactAudioCopyFreeDBPlugin 1.0
#
DISCID=ce0eae10
DTITLE=Avant - Private Room
DYEAR=2003
DGENRE=R&B
TTITLE0=Private Room
TTITLE1=AV
TTITLE2=Read Your Mind
TTITLE3=Heaven
TTITLE4=Don't Take Your Love Away
TTITLE5=Have Some Fun
TTITLE6=Hooked
TTITLE7=Phone Sex (That's What's Up)
TTITLE8=Feast
TTITLE9=Seems To Be (feat. Olivia)
TTITLE10=You Got Me
TTITLE11=Wanna Be Close
TTITLE12=Everything About You
TTITLE13=You
TTITLE14=Read Your Mind (Part II The Remix)
TTITLE15=Flickin
EXTD=avant you got me
EXTT0=
EXTT1=
EXTT2=
EXTT3=
EXTT4=
EXTT5=
EXTT6=
EXTT7=
EXTT8=
EXTT9=
EXTT10=
EXTT11=
EXTT12=
EXTT13=
EXTT14=
EXTT15=
PLAYORDER=
